<svg width="302" height="257" viewBox="0 0 302 257" fill="none" xmlns="http://www.w3.org/2000/svg">
<g clip-path="url(#clip0_53_2)">
<path d="M276.673 253L275.383 249.685H271.138L269.863 253H268.498L272.683 242.245H273.898L278.068 253H276.673ZM273.778 245.245C273.748 245.165 273.698 245.02 273.628 244.81C273.558 244.6 273.488 244.385 273.418 244.165C273.358 243.935 273.308 243.76 273.268 243.64C273.218 243.84 273.163 244.045 273.103 244.255C273.053 244.455 272.998 244.64 272.938 244.81C272.888 244.98 272.843 245.125 272.803 245.245L271.588 248.485H274.978L273.778 245.245ZM283.178 244.81C284.168 244.81 284.963 245.155 285.563 245.845C286.173 246.535 286.478 247.575 286.478 248.965C286.478 249.875 286.338 250.645 286.058 251.275C285.788 251.895 285.403 252.365 284.903 252.685C284.413 252.995 283.833 253.15 283.163 253.15C282.753 253.15 282.388 253.095 282.068 252.985C281.748 252.875 281.473 252.735 281.243 252.565C281.023 252.385 280.833 252.19 280.673 251.98H280.583C280.603 252.15 280.623 252.365 280.643 252.625C280.663 252.885 280.673 253.11 280.673 253.3V256.6H279.353V244.96H280.433L280.613 246.055H280.673C280.833 245.825 281.023 245.615 281.243 245.425C281.473 245.235 281.743 245.085 282.053 244.975C282.373 244.865 282.748 244.81 283.178 244.81ZM282.938 245.92C282.398 245.92 281.963 246.025 281.633 246.235C281.303 246.435 281.063 246.74 280.913 247.15C280.763 247.56 280.683 248.08 280.673 248.71V248.965C280.673 249.625 280.743 250.185 280.883 250.645C281.023 251.105 281.258 251.455 281.588 251.695C281.928 251.935 282.388 252.055 282.968 252.055C283.458 252.055 283.858 251.92 284.168 251.65C284.488 251.38 284.723 251.015 284.873 250.555C285.033 250.085 285.113 249.55 285.113 248.95C285.113 248.03 284.933 247.295 284.573 246.745C284.223 246.195 283.678 245.92 282.938 245.92ZM292.331 244.81C292.481 244.81 292.641 244.82 292.811 244.84C292.991 244.85 293.146 244.87 293.276 244.9L293.111 246.115C292.981 246.085 292.836 246.06 292.676 246.04C292.526 246.02 292.381 246.01 292.241 246.01C291.931 246.01 291.636 246.075 291.356 246.205C291.076 246.335 290.826 246.52 290.606 246.76C290.386 246.99 290.211 247.27 290.081 247.6C289.961 247.93 289.901 248.3 289.901 248.71V253H288.581V244.96H289.661L289.811 246.43H289.871C290.041 246.13 290.246 245.86 290.486 245.62C290.726 245.37 291.001 245.175 291.311 245.035C291.621 244.885 291.961 244.81 292.331 244.81Z" fill="black"/>
<path d="M220.574 253L217.049 243.61H216.989C217.009 243.81 217.024 244.065 217.034 244.375C217.054 244.685 217.069 245.025 217.079 245.395C217.089 245.755 217.094 246.125 217.094 246.505V253H215.849V242.29H217.844L221.144 251.065H221.204L224.564 242.29H226.544V253H225.209V246.415C225.209 246.065 225.214 245.72 225.224 245.38C225.234 245.03 225.249 244.705 225.269 244.405C225.289 244.095 225.304 243.835 225.314 243.625H225.254L221.684 253H220.574ZM232.322 244.825C233.302 244.825 234.027 245.04 234.497 245.47C234.967 245.9 235.202 246.585 235.202 247.525V253H234.242L233.987 251.86H233.927C233.697 252.15 233.457 252.395 233.207 252.595C232.967 252.785 232.687 252.925 232.367 253.015C232.057 253.105 231.677 253.15 231.227 253.15C230.747 253.15 230.312 253.065 229.922 252.895C229.542 252.725 229.242 252.465 229.022 252.115C228.802 251.755 228.692 251.305 228.692 250.765C228.692 249.965 229.007 249.35 229.637 248.92C230.267 248.48 231.237 248.24 232.547 248.2L233.912 248.155V247.675C233.912 247.005 233.767 246.54 233.477 246.28C233.187 246.02 232.777 245.89 232.247 245.89C231.827 245.89 231.427 245.955 231.047 246.085C230.667 246.205 230.312 246.345 229.982 246.505L229.577 245.515C229.927 245.325 230.342 245.165 230.822 245.035C231.302 244.895 231.802 244.825 232.322 244.825ZM232.712 249.115C231.712 249.155 231.017 249.315 230.627 249.595C230.247 249.875 230.057 250.27 230.057 250.78C230.057 251.23 230.192 251.56 230.462 251.77C230.742 251.98 231.097 252.085 231.527 252.085C232.207 252.085 232.772 251.9 233.222 251.53C233.672 251.15 233.897 250.57 233.897 249.79V249.07L232.712 249.115ZM241.435 244.81C241.585 244.81 241.745 244.82 241.915 244.84C242.095 244.85 242.25 244.87 242.38 244.9L242.215 246.115C242.085 246.085 241.94 246.06 241.78 246.04C241.63 246.02 241.485 246.01 241.345 246.01C241.035 246.01 240.74 246.075 240.46 246.205C240.18 246.335 239.93 246.52 239.71 246.76C239.49 246.99 239.315 247.27 239.185 247.6C239.065 247.93 239.005 248.3 239.005 248.71V253H237.685V244.96H238.765L238.915 246.43H238.975C239.145 246.13 239.35 245.86 239.59 245.62C239.83 245.37 240.105 245.175 240.415 245.035C240.725 244.885 241.065 244.81 241.435 244.81Z" fill="black"/>
<path d="M167.068 253H165.718V242.29H171.703V243.475H167.068V247.27H171.418V248.455H167.068V253ZM176.422 244.81C177.112 244.81 177.702 244.96 178.192 245.26C178.692 245.56 179.072 245.985 179.332 246.535C179.602 247.075 179.737 247.71 179.737 248.44V249.235H174.232C174.252 250.145 174.482 250.84 174.922 251.32C175.372 251.79 175.997 252.025 176.797 252.025C177.307 252.025 177.757 251.98 178.147 251.89C178.547 251.79 178.957 251.65 179.377 251.47V252.625C178.967 252.805 178.562 252.935 178.162 253.015C177.762 253.105 177.287 253.15 176.737 253.15C175.977 253.15 175.302 252.995 174.712 252.685C174.132 252.375 173.677 251.915 173.347 251.305C173.027 250.685 172.867 249.93 172.867 249.04C172.867 248.16 173.012 247.405 173.302 246.775C173.602 246.145 174.017 245.66 174.547 245.32C175.087 244.98 175.712 244.81 176.422 244.81ZM176.407 245.89C175.777 245.89 175.277 246.095 174.907 246.505C174.547 246.905 174.332 247.465 174.262 248.185H178.357C178.357 247.725 178.287 247.325 178.147 246.985C178.007 246.645 177.792 246.38 177.502 246.19C177.222 245.99 176.857 245.89 176.407 245.89ZM183.103 244.375C183.103 244.715 183.093 245.035 183.073 245.335C183.063 245.625 183.048 245.855 183.028 246.025H183.103C183.333 245.685 183.648 245.4 184.048 245.17C184.448 244.94 184.963 244.825 185.593 244.825C186.593 244.825 187.393 245.175 187.993 245.875C188.603 246.565 188.908 247.6 188.908 248.98C188.908 249.9 188.768 250.67 188.488 251.29C188.218 251.91 187.833 252.375 187.333 252.685C186.833 252.995 186.253 253.15 185.593 253.15C184.963 253.15 184.448 253.035 184.048 252.805C183.648 252.575 183.333 252.3 183.103 251.98H182.998L182.728 253H181.783V241.6H183.103V244.375ZM185.368 245.92C184.798 245.92 184.348 246.03 184.018 246.25C183.688 246.46 183.453 246.79 183.313 247.24C183.173 247.68 183.103 248.245 183.103 248.935V248.995C183.103 249.985 183.263 250.745 183.583 251.275C183.913 251.795 184.518 252.055 185.398 252.055C186.118 252.055 186.653 251.79 187.003 251.26C187.363 250.73 187.543 249.965 187.543 248.965C187.543 247.955 187.363 247.195 187.003 246.685C186.653 246.175 186.108 245.92 185.368 245.92Z" fill="black"/>
<path d="M114.049 255.85C113.809 255.85 113.599 255.83 113.419 255.79C113.239 255.76 113.079 255.715 112.939 255.655V254.515C113.099 254.555 113.269 254.59 113.449 254.62C113.629 254.65 113.819 254.665 114.019 254.665C114.269 254.665 114.504 254.615 114.724 254.515C114.954 254.415 115.139 254.24 115.279 253.99C115.419 253.74 115.489 253.39 115.489 252.94V242.29H116.839V252.835C116.839 253.525 116.724 254.09 116.494 254.53C116.264 254.98 115.939 255.31 115.519 255.52C115.099 255.74 114.609 255.85 114.049 255.85ZM122.53 244.825C123.51 244.825 124.235 245.04 124.705 245.47C125.175 245.9 125.41 246.585 125.41 247.525V253H124.45L124.195 251.86H124.135C123.905 252.15 123.665 252.395 123.415 252.595C123.175 252.785 122.895 252.925 122.575 253.015C122.265 253.105 121.885 253.15 121.435 253.15C120.955 253.15 120.52 253.065 120.13 252.895C119.75 252.725 119.45 252.465 119.23 252.115C119.01 251.755 118.9 251.305 118.9 250.765C118.9 249.965 119.215 249.35 119.845 248.92C120.475 248.48 121.445 248.24 122.755 248.2L124.12 248.155V247.675C124.12 247.005 123.975 246.54 123.685 246.28C123.395 246.02 122.985 245.89 122.455 245.89C122.035 245.89 121.635 245.955 121.255 246.085C120.875 246.205 120.52 246.345 120.19 246.505L119.785 245.515C120.135 245.325 120.55 245.165 121.03 245.035C121.51 244.895 122.01 244.825 122.53 244.825ZM122.92 249.115C121.92 249.155 121.225 249.315 120.835 249.595C120.455 249.875 120.265 250.27 120.265 250.78C120.265 251.23 120.4 251.56 120.67 251.77C120.95 251.98 121.305 252.085 121.735 252.085C122.415 252.085 122.98 251.9 123.43 251.53C123.88 251.15 124.105 250.57 124.105 249.79V249.07L122.92 249.115ZM131.764 244.81C132.724 244.81 133.449 245.045 133.939 245.515C134.429 245.975 134.674 246.725 134.674 247.765V253H133.369V247.855C133.369 247.205 133.224 246.72 132.934 246.4C132.644 246.08 132.189 245.92 131.569 245.92C130.679 245.92 130.064 246.17 129.724 246.67C129.384 247.17 129.214 247.89 129.214 248.83V253H127.894V244.96H128.959L129.154 246.055H129.229C129.409 245.775 129.629 245.545 129.889 245.365C130.159 245.175 130.454 245.035 130.774 244.945C131.094 244.855 131.424 244.81 131.764 244.81Z" fill="black"/>
<path d="M69.2196 247.54C69.2196 248.74 68.9946 249.745 68.5446 250.555C68.1046 251.365 67.4696 251.975 66.6396 252.385C65.8096 252.795 64.8046 253 63.6246 253H60.6396V242.29H63.9396C65.0196 242.29 65.9546 242.49 66.7446 242.89C67.5346 243.29 68.1446 243.88 68.5746 244.66C69.0046 245.43 69.2196 246.39 69.2196 247.54ZM67.7946 247.585C67.7946 246.635 67.6346 245.855 67.3146 245.245C67.0046 244.635 66.5446 244.185 65.9346 243.895C65.3346 243.595 64.6046 243.445 63.7446 243.445H61.9896V251.845H63.4446C64.8946 251.845 65.9796 251.49 66.6996 250.78C67.4296 250.06 67.7946 248.995 67.7946 247.585ZM74.5216 244.81C75.2116 244.81 75.8016 244.96 76.2916 245.26C76.7916 245.56 77.1716 245.985 77.4316 246.535C77.7016 247.075 77.8366 247.71 77.8366 248.44V249.235H72.3316C72.3516 250.145 72.5816 250.84 73.0216 251.32C73.4716 251.79 74.0966 252.025 74.8966 252.025C75.4066 252.025 75.8566 251.98 76.2466 251.89C76.6466 251.79 77.0566 251.65 77.4766 251.47V252.625C77.0666 252.805 76.6616 252.935 76.2616 253.015C75.8616 253.105 75.3866 253.15 74.8366 253.15C74.0766 253.15 73.4016 252.995 72.8116 252.685C72.2316 252.375 71.7766 251.915 71.4466 251.305C71.1266 250.685 70.9666 249.93 70.9666 249.04C70.9666 248.16 71.1116 247.405 71.4016 246.775C71.7016 246.145 72.1166 245.66 72.6466 245.32C73.1866 244.98 73.8116 244.81 74.5216 244.81ZM74.5066 245.89C73.8766 245.89 73.3766 246.095 73.0066 246.505C72.6466 246.905 72.4316 247.465 72.3616 248.185H76.4566C76.4566 247.725 76.3866 247.325 76.2466 246.985C76.1066 246.645 75.8916 246.38 75.6016 246.19C75.3216 245.99 74.9566 245.89 74.5066 245.89ZM83.1084 253.15C82.3984 253.15 81.7634 253.005 81.2034 252.715C80.6534 252.425 80.2184 251.975 79.8984 251.365C79.5884 250.755 79.4334 249.975 79.4334 249.025C79.4334 248.035 79.5984 247.23 79.9284 246.61C80.2584 245.99 80.7034 245.535 81.2634 245.245C81.8334 244.955 82.4784 244.81 83.1984 244.81C83.6084 244.81 84.0034 244.855 84.3834 244.945C84.7634 245.025 85.0734 245.125 85.3134 245.245L84.9084 246.34C84.6684 246.25 84.3884 246.165 84.0684 246.085C83.7484 246.005 83.4484 245.965 83.1684 245.965C82.6284 245.965 82.1834 246.08 81.8334 246.31C81.4834 246.54 81.2234 246.88 81.0534 247.33C80.8834 247.78 80.7984 248.34 80.7984 249.01C80.7984 249.65 80.8834 250.195 81.0534 250.645C81.2234 251.095 81.4784 251.435 81.8184 251.665C82.1584 251.895 82.5834 252.01 83.0934 252.01C83.5334 252.01 83.9184 251.965 84.2484 251.875C84.5884 251.785 84.8984 251.675 85.1784 251.545V252.715C84.9084 252.855 84.6084 252.96 84.2784 253.03C83.9584 253.11 83.5684 253.15 83.1084 253.15Z" fill="black"/>
<path d="M16.0436 253H14.4686L8.73863 244.105H8.67863C8.68863 244.285 8.69863 244.485 8.70863 244.705C8.72863 244.925 8.74363 245.165 8.75363 245.425C8.76363 245.675 8.77363 245.935 8.78363 246.205C8.79363 246.475 8.79863 246.745 8.79863 247.015V253H7.55363V242.29H9.11363L14.8286 251.155H14.8886C14.8786 251.035 14.8686 250.87 14.8586 250.66C14.8486 250.44 14.8386 250.2 14.8286 249.94C14.8186 249.67 14.8086 249.395 14.7986 249.115C14.7886 248.835 14.7836 248.575 14.7836 248.335V242.29H16.0436V253ZM25.7601 248.965C25.7601 249.635 25.6701 250.23 25.4901 250.75C25.3201 251.26 25.0701 251.695 24.7401 252.055C24.4201 252.415 24.0251 252.69 23.5551 252.88C23.0951 253.06 22.5801 253.15 22.0101 253.15C21.4801 253.15 20.9901 253.06 20.5401 252.88C20.0901 252.69 19.7001 252.415 19.3701 252.055C19.0401 251.695 18.7801 251.26 18.5901 250.75C18.4101 250.23 18.3201 249.635 18.3201 248.965C18.3201 248.075 18.4701 247.325 18.7701 246.715C19.0701 246.095 19.5001 245.625 20.0601 245.305C20.6201 244.975 21.2851 244.81 22.0551 244.81C22.7851 244.81 23.4251 244.975 23.9751 245.305C24.5351 245.625 24.9701 246.095 25.2801 246.715C25.6001 247.325 25.7601 248.075 25.7601 248.965ZM19.6851 248.965C19.6851 249.595 19.7651 250.145 19.9251 250.615C20.0951 251.075 20.3551 251.43 20.7051 251.68C21.0551 251.93 21.5001 252.055 22.0401 252.055C22.5801 252.055 23.0251 251.93 23.3751 251.68C23.7251 251.43 23.9801 251.075 24.1401 250.615C24.3101 250.145 24.3951 249.595 24.3951 248.965C24.3951 248.325 24.3101 247.78 24.1401 247.33C23.9701 246.88 23.7101 246.535 23.3601 246.295C23.0201 246.045 22.5751 245.92 22.0251 245.92C21.2051 245.92 20.6101 246.19 20.2401 246.73C19.8701 247.27 19.6851 248.015 19.6851 248.965ZM29.3292 253L26.2842 244.96H27.6942L29.4042 249.7C29.4842 249.92 29.5692 250.165 29.6592 250.435C29.7492 250.705 29.8292 250.965 29.8992 251.215C29.9692 251.455 30.0192 251.66 30.0492 251.83H30.1092C30.1492 251.66 30.2042 251.45 30.2742 251.2C30.3542 250.95 30.4392 250.69 30.5292 250.42C30.6292 250.15 30.7142 249.91 30.7842 249.7L32.4942 244.96H33.9042L30.8442 253H29.3292Z" fill="black"/>
<rect x="260" y="77" width="42" height="160" rx="21" fill="#496366"/>
<rect x="260" y="101" width="42" height="136" rx="21" fill="#99BABE"/>
<rect x="260" y="166" width="42" height="71" rx="21" fill="#ECF7F9"/>
<rect x="52" y="26" width="42" height="211" rx="21" fill="#496366"/>
<rect x="52" y="88" width="42" height="149" rx="21" fill="#99BABE"/>
<rect x="52" y="123" width="42" height="114" rx="21" fill="#ECF7F9"/>
<rect x="156" y="88" width="42" height="149" rx="21" fill="#496366"/>
<rect x="156" y="109" width="42" height="128" rx="21" fill="#99BABE"/>
<rect x="156" y="149" width="42" height="88" rx="21" fill="#ECF7F9"/>
<rect x="104" y="42" width="42" height="195" rx="21" fill="#496366"/>
<rect x="104" y="73" width="42" height="164" rx="21" fill="#99BABE"/>
<rect x="104" y="101" width="42" height="136" rx="21" fill="#ECF7F9"/>
<rect x="208" y="54" width="42" height="181" rx="21" fill="#496366"/>
<rect x="208" y="80" width="42" height="157" rx="21" fill="#99BABE"/>
<rect x="208" y="121" width="42" height="116" rx="21" fill="#ECF7F9"/>
<rect width="42" height="232" rx="21" fill="#496366"/>
<rect y="61" width="42" height="173" rx="21" fill="#99BABE"/>
<rect y="96" width="42" height="141" rx="21" fill="#ECF7F9"/>
</g>
<defs>
<clipPath id="clip0_53_2">
<rect width="302" height="257" fill="white"/>
</clipPath>
</defs>
</svg>
