<svg width="296" height="187" viewBox="0 0 296 187" fill="none" xmlns="http://www.w3.org/2000/svg">
<g clip-path="url(#clip0_65_219)">
<path d="M249.067 66.9073H63.1046C53.2215 66.9073 45.2104 74.9184 45.2104 84.8015V154.896V182.847C45.2104 185.826 48.8375 187.29 50.9045 185.143L68.6534 166.719C70.2329 165.079 72.4134 164.152 74.6896 164.152L249.065 163.95C257.604 163.95 264.525 157.027 264.525 148.49V82.3693C264.527 73.8282 257.604 66.9073 249.067 66.9073Z" fill="#AADBD2"/>
<path d="M136.72 103.58H92.043C91.0627 103.58 90.2703 102.786 90.2703 101.808C90.2703 100.829 91.0627 100.035 92.043 100.035H136.72C137.7 100.035 138.493 100.829 138.493 101.808C138.493 102.786 137.7 103.58 136.72 103.58Z" fill="white"/>
<path d="M232.32 103.58H163.925C162.945 103.58 162.152 102.786 162.152 101.808C162.152 100.829 162.945 100.035 163.925 100.035H232.32C233.3 100.035 234.092 100.829 234.092 101.808C234.092 102.786 233.298 103.58 232.32 103.58Z" fill="white"/>
<path d="M204.57 119.502H92.0413C91.061 119.502 90.2686 118.707 90.2686 117.729C90.2686 116.75 91.061 115.956 92.0413 115.956H204.57C205.551 115.956 206.343 116.75 206.343 117.729C206.343 118.707 205.551 119.502 204.57 119.502Z" fill="white"/>
<path d="M166.603 135.421H92.043C91.0627 135.421 90.2703 134.627 90.2703 133.648C90.2703 132.669 91.0627 131.875 92.043 131.875H166.603C167.584 131.875 168.376 132.669 168.376 133.648C168.376 134.627 167.582 135.421 166.603 135.421Z" fill="white"/>
<path d="M12.6344 70.6195H64.445C66.099 70.6195 67.682 71.2931 68.829 72.4827L81.7187 85.8634C83.2202 87.4217 85.8545 86.3598 85.8545 84.1953V63.8972V12.9943C85.8545 5.81641 80.0363 0 72.8602 0H10.5745C4.73325 0 4.16419e-07 4.73504 4.16419e-07 10.5745V57.9833C-0.00177234 64.9626 5.65683 70.6195 12.6344 70.6195Z" fill="#F3703B" fill-opacity="0.72"/>
<path d="M58.5205 36.8787C58.5205 39.3286 60.506 41.3141 62.9559 41.3141C65.4059 41.3141 67.3914 39.3286 67.3914 36.8787C67.3914 34.4287 65.4059 32.4432 62.9559 32.4432C60.5077 32.4415 58.5205 34.4287 58.5205 36.8787Z" fill="white"/>
<path d="M37.7295 36.8787C37.7295 39.3286 39.7149 41.3141 42.1649 41.3141C44.6148 41.3141 46.6004 39.3286 46.6004 36.8787C46.6004 34.4287 44.6148 32.4432 42.1649 32.4432C39.7149 32.4415 37.7295 34.4287 37.7295 36.8787Z" fill="white"/>
<path d="M16.4495 36.8787C16.4495 39.3286 18.4349 41.3141 20.8849 41.3141C23.3348 41.3141 25.3203 39.3286 25.3203 36.8787C25.3203 34.4287 23.3348 32.4432 20.8849 32.4432C18.4349 32.4415 16.4495 34.4287 16.4495 36.8787Z" fill="white"/>
<path d="M276.463 99.0615C287.217 88.3074 287.217 70.8715 276.463 60.1173C265.709 49.3632 248.273 49.3632 237.519 60.1173C226.765 70.8715 226.765 88.3074 237.519 99.0615C248.273 109.816 265.709 109.816 276.463 99.0615Z" fill="#F3703B" fill-opacity="0.72"/>
<path d="M260.15 92.4491H256.362V69.5682L252.519 71.9277V68.0082L256.362 65.4448H260.15V92.4491Z" fill="white"/>
</g>
<defs>
<clipPath id="clip0_65_219">
<rect width="295.94" height="186.16" fill="white"/>
</clipPath>
</defs>
</svg>
