<svg width="434" height="50" viewBox="0 0 434 50" fill="none" xmlns="http://www.w3.org/2000/svg">
<g clip-path="url(#clip0_38_81)">
<circle cx="25" cy="25" r="25" fill="white"/>
<circle cx="89" cy="25" r="25" fill="white"/>
<circle cx="153" cy="25" r="25" fill="white"/>
<circle cx="217" cy="25" r="25" fill="white"/>
<circle cx="281" cy="25" r="25" fill="white"/>
<circle cx="345" cy="25" r="25" fill="white"/>
<circle cx="409" cy="25" r="25" fill="white"/>
<path d="M27.066 36H24.486V21.03C24.486 20.45 24.486 19.96 24.486 19.56C24.506 19.16 24.526 18.79 24.546 18.45C24.566 18.09 24.586 17.72 24.606 17.34C24.286 17.66 23.996 17.93 23.736 18.15C23.476 18.37 23.146 18.65 22.746 18.99L20.466 20.85L19.086 19.08L24.876 14.58H27.066V36Z" fill="black"/>
<path d="M96.016 36H81.856V33.81L87.466 28.14C88.546 27.06 89.456 26.1 90.196 25.26C90.936 24.42 91.496 23.6 91.876 22.8C92.256 21.98 92.446 21.09 92.446 20.13C92.446 18.95 92.096 18.06 91.396 17.46C90.696 16.84 89.786 16.53 88.666 16.53C87.626 16.53 86.706 16.71 85.906 17.07C85.126 17.43 84.326 17.93 83.506 18.57L82.096 16.8C82.656 16.32 83.266 15.89 83.926 15.51C84.606 15.13 85.336 14.83 86.116 14.61C86.916 14.39 87.766 14.28 88.666 14.28C90.006 14.28 91.156 14.51 92.116 14.97C93.076 15.43 93.816 16.09 94.336 16.95C94.876 17.79 95.146 18.8 95.146 19.98C95.146 20.82 95.016 21.62 94.756 22.38C94.496 23.12 94.126 23.85 93.646 24.57C93.166 25.29 92.586 26.02 91.906 26.76C91.226 27.5 90.476 28.27 89.656 29.07L85.186 33.48V33.6H96.016V36Z" fill="black"/>
<path d="M159.206 19.59C159.206 20.55 159.026 21.38 158.666 22.08C158.306 22.78 157.786 23.35 157.106 23.79C156.446 24.23 155.666 24.54 154.766 24.72V24.84C156.486 25.04 157.766 25.58 158.606 26.46C159.446 27.34 159.866 28.49 159.866 29.91C159.866 31.15 159.576 32.26 158.996 33.24C158.416 34.2 157.516 34.95 156.296 35.49C155.096 36.03 153.546 36.3 151.646 36.3C150.526 36.3 149.486 36.21 148.526 36.03C147.566 35.87 146.646 35.57 145.766 35.13V32.67C146.666 33.11 147.636 33.46 148.676 33.72C149.716 33.96 150.716 34.08 151.676 34.08C153.596 34.08 154.976 33.71 155.816 32.97C156.676 32.21 157.106 31.17 157.106 29.85C157.106 28.95 156.866 28.23 156.386 27.69C155.926 27.13 155.246 26.72 154.346 26.46C153.446 26.2 152.366 26.07 151.106 26.07H149.036V23.82H151.136C152.316 23.82 153.296 23.65 154.076 23.31C154.876 22.97 155.476 22.5 155.876 21.9C156.296 21.28 156.506 20.57 156.506 19.77C156.506 18.73 156.156 17.93 155.456 17.37C154.756 16.79 153.806 16.5 152.606 16.5C151.846 16.5 151.156 16.58 150.536 16.74C149.916 16.88 149.336 17.09 148.796 17.37C148.276 17.63 147.746 17.94 147.206 18.3L145.886 16.5C146.406 16.1 146.996 15.73 147.656 15.39C148.336 15.05 149.086 14.78 149.906 14.58C150.726 14.38 151.616 14.28 152.576 14.28C154.816 14.28 156.476 14.78 157.556 15.78C158.656 16.78 159.206 18.05 159.206 19.59Z" fill="black"/>
<path d="M224.976 31.14H221.856V36H219.306V31.14H209.046V28.89L219.126 14.46H221.856V28.77H224.976V31.14ZM219.306 22.02C219.306 21.5 219.306 21.03 219.306 20.61C219.326 20.17 219.346 19.76 219.366 19.38C219.386 19 219.396 18.64 219.396 18.3C219.416 17.94 219.436 17.6 219.456 17.28H219.336C219.176 17.66 218.976 18.07 218.736 18.51C218.496 18.95 218.266 19.32 218.046 19.62L211.626 28.77H219.306V22.02Z" fill="black"/>
<path d="M280.666 22.86C282.126 22.86 283.396 23.11 284.476 23.61C285.556 24.11 286.386 24.83 286.966 25.77C287.566 26.69 287.866 27.82 287.866 29.16C287.866 30.64 287.546 31.92 286.906 33C286.266 34.06 285.346 34.88 284.146 35.46C282.966 36.02 281.536 36.3 279.856 36.3C278.756 36.3 277.716 36.2 276.736 36C275.776 35.8 274.966 35.51 274.306 35.13V32.64C275.026 33.08 275.896 33.43 276.916 33.69C277.956 33.93 278.946 34.05 279.886 34.05C280.946 34.05 281.866 33.89 282.646 33.57C283.446 33.23 284.066 32.72 284.506 32.04C284.946 31.34 285.166 30.47 285.166 29.43C285.166 28.03 284.736 26.96 283.876 26.22C283.016 25.46 281.656 25.08 279.796 25.08C279.236 25.08 278.596 25.13 277.876 25.23C277.156 25.33 276.576 25.43 276.136 25.53L274.816 24.69L275.626 14.58H286.366V16.98H277.876L277.366 23.19C277.706 23.13 278.166 23.06 278.746 22.98C279.326 22.9 279.966 22.86 280.666 22.86Z" fill="black"/>
<path d="M338.066 26.85C338.066 25.61 338.146 24.39 338.306 23.19C338.486 21.99 338.786 20.86 339.206 19.8C339.626 18.72 340.206 17.77 340.946 16.95C341.686 16.11 342.616 15.46 343.736 15C344.876 14.52 346.256 14.28 347.876 14.28C348.296 14.28 348.756 14.3 349.256 14.34C349.776 14.38 350.196 14.45 350.516 14.55V16.8C350.156 16.68 349.746 16.59 349.286 16.53C348.846 16.47 348.396 16.44 347.936 16.44C346.556 16.44 345.406 16.67 344.486 17.13C343.566 17.59 342.836 18.22 342.296 19.02C341.776 19.82 341.396 20.74 341.156 21.78C340.916 22.82 340.766 23.93 340.706 25.11H340.886C341.186 24.63 341.566 24.2 342.026 23.82C342.486 23.44 343.036 23.14 343.676 22.92C344.336 22.7 345.096 22.59 345.956 22.59C347.196 22.59 348.276 22.85 349.196 23.37C350.136 23.87 350.866 24.61 351.386 25.59C351.906 26.55 352.166 27.72 352.166 29.1C352.166 30.58 351.886 31.86 351.326 32.94C350.766 34.02 349.976 34.85 348.956 35.43C347.956 36.01 346.756 36.3 345.356 36.3C344.336 36.3 343.386 36.11 342.506 35.73C341.626 35.35 340.846 34.77 340.166 33.99C339.506 33.21 338.986 32.23 338.606 31.05C338.246 29.85 338.066 28.45 338.066 26.85ZM345.326 34.08C346.586 34.08 347.606 33.68 348.386 32.88C349.166 32.06 349.556 30.8 349.556 29.1C349.556 27.74 349.206 26.66 348.506 25.86C347.826 25.06 346.796 24.66 345.416 24.66C344.476 24.66 343.656 24.86 342.956 25.26C342.256 25.64 341.706 26.13 341.306 26.73C340.926 27.33 340.736 27.95 340.736 28.59C340.736 29.25 340.826 29.9 341.006 30.54C341.206 31.18 341.496 31.77 341.876 32.31C342.276 32.85 342.756 33.28 343.316 33.6C343.896 33.92 344.566 34.08 345.326 34.08Z" fill="black"/>
<path d="M404.496 38L413.286 18.98H401.736V16.58H416.106V18.62L407.406 38H404.496Z" fill="black"/>
</g>
<defs>
<clipPath id="clip0_38_81">
<rect width="434" height="50" fill="white"/>
</clipPath>
</defs>
</svg>
