<svg width="800" height="245" viewBox="0 0 800 245" fill="none" xmlns="http://www.w3.org/2000/svg">
<g clip-path="url(#clip0_53_38)">
<rect width="800" height="245" rx="23" fill="white"/>
<path d="M171.823 59H169.96L171.087 43.498H173.456L175.503 49.156L177.987 56.378C179.029 53.4187 180.616 49.1253 182.748 43.498H185.117L186.474 59H184.611L183.53 46.005C182.533 48.7957 180.977 53.0123 178.861 58.655H177.09L172.697 46.143C172.697 46.557 172.405 50.8427 171.823 59ZM196.12 44.947C194.556 44.947 193.33 45.5067 192.44 46.626C191.566 47.73 191.129 49.248 191.129 51.18C191.129 53.0967 191.582 54.6147 192.486 55.734C193.406 56.8533 194.641 57.413 196.189 57.413C197.738 57.413 198.942 56.861 199.8 55.757C200.674 54.653 201.111 53.1273 201.111 51.18C201.111 49.2327 200.674 47.707 199.8 46.603C198.926 45.499 197.7 44.947 196.12 44.947ZM196.143 43.199C198.305 43.199 200 43.9197 201.226 45.361C202.468 46.787 203.089 48.7267 203.089 51.18C203.089 53.618 202.461 55.5653 201.203 57.022C199.961 58.4633 198.282 59.184 196.166 59.184C194.05 59.184 192.356 58.4557 191.083 56.999C189.811 55.5423 189.174 53.6027 189.174 51.18C189.174 48.742 189.795 46.8023 191.037 45.361C192.295 43.9197 193.997 43.199 196.143 43.199ZM207.809 59H205.946V43.498H208.292L212.179 50.03L216.112 56.746C216.05 55.2587 216.02 53.0277 216.02 50.053V43.498H217.883V59H215.537C211.243 51.8393 208.629 47.4157 207.694 45.729C207.77 47.3237 207.809 49.57 207.809 52.468V59Z" fill="black"/>
<path d="M289.928 45.131H285.742V59H283.879V45.131H279.693V43.498H289.928V45.131ZM303.462 53.112C303.462 55.1053 302.956 56.6157 301.944 57.643C300.947 58.6703 299.559 59.184 297.781 59.184C296.002 59.184 294.614 58.6857 293.618 57.689C292.621 56.677 292.123 55.2127 292.123 53.296V43.498H293.986V53.273C293.986 54.699 294.323 55.7493 294.998 56.424C295.688 57.0987 296.608 57.436 297.758 57.436C300.318 57.436 301.599 56.01 301.599 53.158V43.498H303.462V53.112ZM315.618 59H306.97V43.498H315.503V45.131H308.833V50.444H314.721V52.077H308.833V57.367H315.618V59Z" fill="black"/>
<path d="M384.588 59H382.219L378.171 43.498H380.126L381.575 49.248L383.484 57.045C384.358 53.825 385.623 49.386 387.279 43.728H389.142L390.844 49.248L393.19 57.114C393.773 54.3387 394.777 49.8 396.203 43.498H398.089L394.455 59H392.063L388.245 46.35C387.801 48.052 386.582 52.2687 384.588 59ZM409.347 59H400.699V43.498H409.232V45.131H402.562V50.444H408.45V52.077H402.562V57.367H409.347V59ZM416.799 45.154H414.108V57.367H416.891C418.807 57.367 420.256 56.7767 421.238 55.596C422.219 54.4 422.71 52.9357 422.71 51.203C422.71 49.4703 422.158 48.029 421.054 46.879C419.965 45.729 418.547 45.154 416.799 45.154ZM416.914 59H412.222V43.498H416.822C419.106 43.498 420.977 44.211 422.434 45.637C423.906 47.0477 424.642 48.88 424.642 51.134C424.642 53.3727 423.959 55.2433 422.595 56.746C421.245 58.2487 419.352 59 416.914 59Z" fill="black"/>
<path d="M496.911 45.131H492.725V59H490.862V45.131H486.676V43.498H496.911V45.131ZM510.376 59H508.513V51.985H500.992V59H499.129V43.498H500.992V50.306H508.513V43.498H510.376V59ZM518.186 52.882H515.771V59H513.908V43.498H517.795C519.589 43.498 520.946 43.9197 521.866 44.763C522.802 45.6063 523.269 46.7717 523.269 48.259C523.239 49.3323 522.955 50.2447 522.418 50.996C521.882 51.7473 521.123 52.2763 520.141 52.583L524.212 59H521.981L518.186 52.882ZM517.91 45.108H515.771V51.295H518.117C519.175 51.295 519.98 51.0113 520.532 50.444C521.1 49.8613 521.383 49.1177 521.383 48.213C521.383 46.143 520.226 45.108 517.91 45.108Z" fill="black"/>
<path d="M603.208 52.261H597.366V59H595.503V43.498H604.013V45.131H597.366V50.628H603.208V52.261ZM611.034 52.882H608.619V59H606.756V43.498H610.643C612.437 43.498 613.794 43.9197 614.714 44.763C615.649 45.6063 616.117 46.7717 616.117 48.259C616.086 49.3323 615.803 50.2447 615.266 50.996C614.729 51.7473 613.97 52.2763 612.989 52.583L617.06 59H614.829L611.034 52.882ZM610.758 45.108H608.619V51.295H610.965C612.023 51.295 612.828 51.0113 613.38 50.444C613.947 49.8613 614.231 49.1177 614.231 48.213C614.231 46.143 613.073 45.108 610.758 45.108ZM621.357 59H619.494V43.498H621.357V59Z" fill="black"/>
<path d="M705.205 54.883C705.205 56.2477 704.738 57.3057 703.802 58.057C702.867 58.793 701.625 59.161 700.076 59.161C698.528 59.161 697.186 58.8313 696.051 58.172V56.171C697.171 57.0143 698.535 57.436 700.145 57.436C701.111 57.436 701.87 57.2213 702.422 56.792C702.974 56.3627 703.25 55.7417 703.25 54.929C703.25 54.2543 702.974 53.71 702.422 53.296C701.809 52.836 701.096 52.4373 700.283 52.1C699.471 51.7473 698.888 51.479 698.535 51.295C698.198 51.111 697.792 50.8427 697.316 50.49C696.427 49.7847 695.982 48.7957 695.982 47.523C695.982 46.235 696.45 45.223 697.385 44.487C698.336 43.7357 699.501 43.36 700.881 43.36C702.261 43.36 703.419 43.5977 704.354 44.073V46.028C703.419 45.4147 702.392 45.108 701.272 45.108C700.153 45.108 699.317 45.3303 698.765 45.775C698.213 46.2043 697.937 46.7717 697.937 47.477C697.937 48.2283 698.267 48.834 698.926 49.294C699.417 49.616 700.03 49.9457 700.766 50.283C701.502 50.605 702.008 50.835 702.284 50.973C702.56 51.0957 702.913 51.3027 703.342 51.594C703.787 51.87 704.124 52.146 704.354 52.422C704.922 53.112 705.205 53.9323 705.205 54.883ZM709.332 59H707.331L712.736 43.498H715.312L720.625 59H718.624L717.267 54.929H710.712L709.332 59ZM714.024 44.993C713.809 45.775 712.882 48.558 711.241 53.342H716.738L714.024 44.993ZM732.089 45.131H727.903V59H726.04V45.131H721.854V43.498H732.089V45.131Z" fill="black"/>
<path d="M79.0603 54.883C79.0603 56.2477 78.5927 57.3057 77.6573 58.057C76.722 58.793 75.48 59.161 73.9313 59.161C72.3827 59.161 71.041 58.8313 69.9063 58.172V56.171C71.0257 57.0143 72.3903 57.436 74.0003 57.436C74.9663 57.436 75.7253 57.2213 76.2773 56.792C76.8293 56.3627 77.1053 55.7417 77.1053 54.929C77.1053 54.2543 76.8293 53.71 76.2773 53.296C75.664 52.836 74.951 52.4373 74.1383 52.1C73.3257 51.7473 72.743 51.479 72.3903 51.295C72.053 51.111 71.6467 50.8427 71.1713 50.49C70.282 49.7847 69.8373 48.7957 69.8373 47.523C69.8373 46.235 70.305 45.223 71.2403 44.487C72.191 43.7357 73.3563 43.36 74.7363 43.36C76.1163 43.36 77.274 43.5977 78.2093 44.073V46.028C77.274 45.4147 76.2467 45.108 75.1273 45.108C74.008 45.108 73.1723 45.3303 72.6203 45.775C72.0683 46.2043 71.7923 46.7717 71.7923 47.477C71.7923 48.2283 72.122 48.834 72.7813 49.294C73.272 49.616 73.8853 49.9457 74.6213 50.283C75.3573 50.605 75.8633 50.835 76.1393 50.973C76.4153 51.0957 76.768 51.3027 77.1973 51.594C77.642 51.87 77.9793 52.146 78.2093 52.422C78.7767 53.112 79.0603 53.9323 79.0603 54.883ZM93.4679 53.112C93.4679 55.1053 92.9619 56.6157 91.9499 57.643C90.9532 58.6703 89.5655 59.184 87.7869 59.184C86.0082 59.184 84.6205 58.6857 83.6239 57.689C82.6272 56.677 82.1289 55.2127 82.1289 53.296V43.498H83.9919V53.273C83.9919 54.699 84.3292 55.7493 85.0039 56.424C85.6939 57.0987 86.6139 57.436 87.7639 57.436C90.3245 57.436 91.6049 56.01 91.6049 53.158V43.498H93.4679V53.112ZM98.8391 59H96.9761V43.498H99.3221L103.209 50.03L107.142 56.746C107.081 55.2587 107.05 53.0277 107.05 50.053V43.498H108.913V59H106.567C102.274 51.8393 99.6594 47.4157 98.7241 45.729C98.8007 47.3237 98.8391 49.57 98.8391 52.468V59Z" fill="black"/>
<rect x="42" y="144" width="96" height="59" rx="5" fill="#E1CEA6" fill-opacity="0.5"/>
<rect x="42" y="75" width="96" height="59" rx="5" fill="#E1CEA6" fill-opacity="0.5"/>
<rect x="146" y="144" width="96" height="59" rx="5" fill="#E1CEA6" fill-opacity="0.5"/>
<rect x="146" y="75" width="96" height="59" rx="5" fill="#E1CEA6" fill-opacity="0.5"/>
<rect x="250" y="144" width="96" height="59" rx="5" fill="#AADBD2"/>
<rect x="250" y="75" width="96" height="59" rx="5" fill="#E1CEA6" fill-opacity="0.5"/>
<rect x="354" y="144" width="96" height="59" rx="5" fill="#E1CEA6" fill-opacity="0.5"/>
<rect x="354" y="75" width="96" height="59" rx="5" fill="#E1CEA6" fill-opacity="0.5"/>
<rect x="458" y="144" width="96" height="59" rx="5" fill="#E1CEA6" fill-opacity="0.5"/>
<rect x="458" y="75" width="96" height="59" rx="5" fill="#E1CEA6" fill-opacity="0.5"/>
<rect x="562" y="144" width="96" height="59" rx="5" fill="#E1CEA6" fill-opacity="0.5"/>
<rect x="562" y="75" width="96" height="59" rx="5" fill="#AADBD2"/>
<rect x="666" y="144" width="96" height="59" rx="5" fill="#E1CEA6" fill-opacity="0.5"/>
<rect x="666" y="75" width="96" height="59" rx="5" fill="#E1CEA6" fill-opacity="0.5"/>
<path d="M193.839 112H184.34V110.459C189.094 106.871 191.47 103.881 191.47 101.489C191.47 100.538 191.194 99.81 190.642 99.304C190.09 98.7827 189.347 98.522 188.411 98.522C187.2 98.522 186.004 98.9743 184.823 99.879V98.062C185.912 97.2187 187.146 96.797 188.526 96.797C189.906 96.797 191.056 97.188 191.976 97.97C192.896 98.752 193.356 99.8637 193.356 101.305C193.356 104.019 191.187 107.055 186.847 110.413H193.839V112ZM200.513 102.823C202.046 102.823 203.257 103.229 204.147 104.042C205.051 104.855 205.504 105.974 205.504 107.4C205.504 108.826 205.013 109.984 204.032 110.873C203.066 111.747 201.778 112.184 200.168 112.184C198.573 112.184 197.247 111.923 196.189 111.402V109.608C197.17 110.191 198.358 110.482 199.754 110.482C202.33 110.482 203.618 109.401 203.618 107.239C203.618 106.365 203.319 105.69 202.721 105.215C202.123 104.724 201.302 104.479 200.26 104.479C199.232 104.479 198.121 104.747 196.925 105.284V96.958H204.469V98.545H198.719V103.053C199.409 102.9 200.007 102.823 200.513 102.823Z" fill="black"/>
<path d="M88.4799 112H78.9809V110.459C83.7343 106.871 86.1109 103.881 86.1109 101.489C86.1109 100.538 85.8349 99.81 85.2829 99.304C84.7309 98.7827 83.9873 98.522 83.0519 98.522C81.8406 98.522 80.6446 98.9743 79.4639 99.879V98.062C80.5526 97.2187 81.7869 96.797 83.1669 96.797C84.5469 96.797 85.6969 97.188 86.6169 97.97C87.5369 98.752 87.9969 99.8637 87.9969 101.305C87.9969 104.019 85.8273 107.055 81.4879 110.413H88.4799V112ZM99.1092 112H97.3152V108.343H90.4382V106.756L96.1652 96.958H99.1092V106.756H101.34V108.343H99.1092V112ZM97.3152 106.756V98.039L92.2782 106.756H97.3152Z" fill="black"/>
<path d="M296.137 112H286.638V110.459C291.391 106.871 293.768 103.881 293.768 101.489C293.768 100.538 293.492 99.81 292.94 99.304C292.388 98.7827 291.644 98.522 290.709 98.522C289.498 98.522 288.302 98.9743 287.121 99.879V98.062C288.21 97.2187 289.444 96.797 290.824 96.797C292.204 96.797 293.354 97.188 294.274 97.97C295.194 98.752 295.654 99.8637 295.654 101.305C295.654 104.019 293.484 107.055 289.145 110.413H296.137V112ZM300.142 105.629C300.204 107.254 300.556 108.489 301.2 109.332C301.844 110.16 302.634 110.574 303.569 110.574C304.505 110.574 305.225 110.252 305.731 109.608C306.253 108.964 306.513 108.144 306.513 107.147C306.513 106.15 306.253 105.368 305.731 104.801C305.225 104.234 304.558 103.95 303.73 103.95C302.35 103.95 301.154 104.51 300.142 105.629ZM303.868 102.317C305.31 102.317 306.421 102.754 307.203 103.628C308.001 104.502 308.399 105.683 308.399 107.17C308.399 108.657 307.962 109.876 307.088 110.827C306.23 111.778 305.087 112.253 303.661 112.253C301.944 112.253 300.625 111.601 299.705 110.298C298.785 108.995 298.325 107.293 298.325 105.192C298.325 102.693 298.939 100.623 300.165 98.982C301.392 97.3413 303.079 96.521 305.225 96.521C305.915 96.521 306.621 96.636 307.341 96.866V98.637C306.682 98.3457 305.984 98.2 305.248 98.2C303.807 98.2 302.657 98.7443 301.798 99.833C300.94 100.906 300.411 102.263 300.211 103.904C301.223 102.846 302.442 102.317 303.868 102.317Z" fill="black"/>
<path d="M401.002 112H391.503V110.459C396.256 106.871 398.633 103.881 398.633 101.489C398.633 100.538 398.357 99.81 397.805 99.304C397.253 98.7827 396.509 98.522 395.574 98.522C394.363 98.522 393.167 98.9743 391.986 99.879V98.062C393.075 97.2187 394.309 96.797 395.689 96.797C397.069 96.797 398.219 97.188 399.139 97.97C400.059 98.752 400.519 99.8637 400.519 101.305C400.519 104.019 398.349 107.055 394.01 110.413H401.002V112ZM402.27 98.545V96.958H412.091V98.545L405.858 112H403.926L410.159 98.545H402.27Z" fill="black"/>
<path d="M504.025 112H494.526V110.459C499.279 106.871 501.656 103.881 501.656 101.489C501.656 100.538 501.38 99.81 500.828 99.304C500.276 98.7827 499.532 98.522 498.597 98.522C497.386 98.522 496.19 98.9743 495.009 99.879V98.062C496.098 97.2187 497.332 96.797 498.712 96.797C500.092 96.797 501.242 97.188 502.162 97.97C503.082 98.752 503.542 99.8637 503.542 101.305C503.542 104.019 501.372 107.055 497.033 110.413H504.025V112ZM511.135 98.407C510.246 98.407 509.548 98.66 509.042 99.166C508.536 99.672 508.283 100.324 508.283 101.121C508.283 101.918 508.551 102.539 509.088 102.984C509.64 103.429 510.33 103.651 511.158 103.651C511.986 103.651 512.661 103.421 513.182 102.961C513.703 102.486 513.964 101.857 513.964 101.075C513.964 100.278 513.719 99.6337 513.228 99.143C512.737 98.6523 512.04 98.407 511.135 98.407ZM511.135 105.33C510.092 105.345 509.31 105.621 508.789 106.158C508.283 106.679 508.03 107.316 508.03 108.067C508.03 108.803 508.298 109.409 508.835 109.884C509.372 110.344 510.138 110.574 511.135 110.574C512.147 110.574 512.929 110.321 513.481 109.815C514.033 109.309 514.309 108.688 514.309 107.952C514.309 107.201 514.041 106.572 513.504 106.066C512.967 105.56 512.178 105.315 511.135 105.33ZM516.172 108.09C516.172 109.332 515.689 110.329 514.723 111.08C513.757 111.816 512.561 112.184 511.135 112.184C509.709 112.184 508.528 111.824 507.593 111.103C506.658 110.382 506.19 109.416 506.19 108.205C506.19 107.3 506.428 106.534 506.903 105.905C507.394 105.261 508.061 104.793 508.904 104.502C507.263 103.873 506.443 102.716 506.443 101.029C506.443 99.695 506.903 98.66 507.823 97.924C508.743 97.1727 509.839 96.797 511.112 96.797C512.4 96.797 513.504 97.165 514.424 97.901C515.344 98.6217 515.804 99.672 515.804 101.052C515.804 101.834 515.589 102.524 515.16 103.122C514.731 103.705 514.14 104.149 513.389 104.456C515.244 105.023 516.172 106.235 516.172 108.09Z" fill="black"/>
<path d="M607.895 112H598.396V110.459C603.15 106.871 605.526 103.881 605.526 101.489C605.526 100.538 605.25 99.81 604.698 99.304C604.146 98.7827 603.403 98.522 602.467 98.522C601.256 98.522 600.06 98.9743 598.879 99.879V98.062C599.968 97.2187 601.202 96.797 602.582 96.797C603.962 96.797 605.112 97.188 606.032 97.97C606.952 98.752 607.412 99.8637 607.412 101.305C607.412 104.019 605.243 107.055 600.903 110.413H607.895V112ZM619.514 103.421C619.514 106.15 618.962 108.297 617.858 109.861C616.769 111.41 615.136 112.184 612.959 112.184C612.069 112.184 611.203 112.038 610.36 111.747V109.953C611.157 110.306 612 110.482 612.89 110.482C615.665 110.482 617.244 108.742 617.628 105.261C616.861 106.166 615.726 106.618 614.224 106.618C612.997 106.618 611.939 106.173 611.05 105.284C610.16 104.379 609.716 103.206 609.716 101.765C609.716 100.308 610.137 99.1123 610.981 98.177C611.824 97.2417 612.974 96.774 614.431 96.774C616.117 96.774 617.382 97.4027 618.226 98.66C619.084 99.9173 619.514 101.504 619.514 103.421ZM614.684 105.008C615.941 105.008 616.953 104.517 617.72 103.536V103.421C617.72 101.964 617.459 100.776 616.938 99.856C616.432 98.9207 615.611 98.453 614.477 98.453C613.603 98.453 612.905 98.7443 612.384 99.327C611.862 99.9097 611.602 100.722 611.602 101.765C611.602 102.792 611.878 103.59 612.43 104.157C612.982 104.724 613.733 105.008 614.684 105.008Z" fill="black"/>
<path d="M711.933 107.86C711.933 109.087 711.503 110.106 710.645 110.919C709.786 111.732 708.605 112.138 707.103 112.138C705.6 112.138 704.32 111.885 703.262 111.379V109.562C704.396 110.16 705.539 110.459 706.689 110.459C707.854 110.459 708.705 110.206 709.242 109.7C709.794 109.194 710.07 108.535 710.07 107.722C710.07 106.909 709.763 106.288 709.15 105.859C708.552 105.414 707.685 105.192 706.551 105.192H705.585V103.605H706.551C707.409 103.605 708.13 103.367 708.713 102.892C709.311 102.401 709.61 101.75 709.61 100.937C709.61 100.124 709.357 99.511 708.851 99.097C708.345 98.683 707.601 98.476 706.62 98.476C705.654 98.476 704.688 98.7903 703.722 99.419V97.648C704.611 97.0807 705.715 96.797 707.034 96.797C708.368 96.797 709.441 97.1803 710.254 97.947C711.082 98.6983 711.496 99.6337 711.496 100.753C711.496 101.566 711.289 102.294 710.875 102.938C710.476 103.582 709.878 104.065 709.081 104.387C709.955 104.586 710.645 104.993 711.151 105.606C711.672 106.204 711.933 106.955 711.933 107.86ZM716.943 100.063C716.283 101.09 715.954 102.547 715.954 104.433C715.954 106.319 716.276 107.799 716.92 108.872C717.564 109.93 718.384 110.459 719.381 110.459C720.393 110.459 721.205 109.938 721.819 108.895C722.447 107.852 722.762 106.373 722.762 104.456C722.762 102.524 722.432 101.052 721.773 100.04C721.129 99.0127 720.324 98.499 719.358 98.499C718.407 98.499 717.602 99.0203 716.943 100.063ZM719.358 96.774C720.952 96.774 722.225 97.464 723.176 98.844C724.142 100.209 724.625 102.072 724.625 104.433C724.625 106.779 724.165 108.657 723.245 110.068C722.325 111.479 721.044 112.184 719.404 112.184C717.763 112.184 716.467 111.479 715.517 110.068C714.566 108.657 714.091 106.779 714.091 104.433C714.091 102.072 714.566 100.209 715.517 98.844C716.483 97.464 717.763 96.774 719.358 96.774Z" fill="black"/>
<path d="M89.9708 176.86C89.9708 178.087 89.5414 179.106 88.6828 179.919C87.8241 180.732 86.6434 181.138 85.1408 181.138C83.6381 181.138 82.3578 180.885 81.2998 180.379V178.562C82.4344 179.16 83.5768 179.459 84.7268 179.459C85.8921 179.459 86.7431 179.206 87.2798 178.7C87.8318 178.194 88.1078 177.535 88.1078 176.722C88.1078 175.909 87.8011 175.288 87.1878 174.859C86.5898 174.414 85.7234 174.192 84.5888 174.192H83.6228V172.605H84.5888C85.4474 172.605 86.1681 172.367 86.7508 171.892C87.3488 171.401 87.6478 170.75 87.6478 169.937C87.6478 169.124 87.3948 168.511 86.8888 168.097C86.3828 167.683 85.6391 167.476 84.6578 167.476C83.6918 167.476 82.7258 167.79 81.7598 168.419V166.648C82.6491 166.081 83.7531 165.797 85.0718 165.797C86.4058 165.797 87.4791 166.18 88.2918 166.947C89.1198 167.698 89.5338 168.634 89.5338 169.753C89.5338 170.566 89.3268 171.294 88.9128 171.938C88.5141 172.582 87.9161 173.065 87.1188 173.387C87.9928 173.586 88.6828 173.993 89.1888 174.606C89.7101 175.204 89.9708 175.955 89.9708 176.86ZM96.8206 181H95.0266V167.936L91.5536 170.075V168.12L95.1186 165.958H96.8206V181Z" fill="black"/>
<path d="M196.464 181H194.67V167.936L191.197 170.075V168.12L194.762 165.958H196.464V181Z" fill="black"/>
<path d="M302.19 181H292.691V179.459C297.445 175.871 299.821 172.881 299.821 170.489C299.821 169.538 299.545 168.81 298.993 168.304C298.441 167.783 297.698 167.522 296.762 167.522C295.551 167.522 294.355 167.974 293.174 168.879V167.062C294.263 166.219 295.497 165.797 296.877 165.797C298.257 165.797 299.407 166.188 300.327 166.97C301.247 167.752 301.707 168.864 301.707 170.305C301.707 173.019 299.538 176.055 295.198 179.413H302.19V181Z" fill="black"/>
<path d="M406.188 176.86C406.188 178.087 405.759 179.106 404.9 179.919C404.041 180.732 402.861 181.138 401.358 181.138C399.855 181.138 398.575 180.885 397.517 180.379V178.562C398.652 179.16 399.794 179.459 400.944 179.459C402.109 179.459 402.96 179.206 403.497 178.7C404.049 178.194 404.325 177.535 404.325 176.722C404.325 175.909 404.018 175.288 403.405 174.859C402.807 174.414 401.941 174.192 400.806 174.192H399.84V172.605H400.806C401.665 172.605 402.385 172.367 402.968 171.892C403.566 171.401 403.865 170.75 403.865 169.937C403.865 169.124 403.612 168.511 403.106 168.097C402.6 167.683 401.856 167.476 400.875 167.476C399.909 167.476 398.943 167.79 397.977 168.419V166.648C398.866 166.081 399.97 165.797 401.289 165.797C402.623 165.797 403.696 166.18 404.509 166.947C405.337 167.698 405.751 168.634 405.751 169.753C405.751 170.566 405.544 171.294 405.13 171.938C404.731 172.582 404.133 173.065 403.336 173.387C404.21 173.586 404.9 173.993 405.406 174.606C405.927 175.204 406.188 175.955 406.188 176.86Z" fill="black"/>
<path d="M509.927 181H508.133V177.343H501.256V175.756L506.983 165.958H509.927V175.756H512.158V177.343H509.927V181ZM508.133 175.756V167.039L503.096 175.756H508.133Z" fill="black"/>
<path d="M609.83 171.823C611.363 171.823 612.575 172.229 613.464 173.042C614.369 173.855 614.821 174.974 614.821 176.4C614.821 177.826 614.33 178.984 613.349 179.873C612.383 180.747 611.095 181.184 609.485 181.184C607.89 181.184 606.564 180.923 605.506 180.402V178.608C606.487 179.191 607.676 179.482 609.071 179.482C611.647 179.482 612.935 178.401 612.935 176.239C612.935 175.365 612.636 174.69 612.038 174.215C611.44 173.724 610.62 173.479 609.577 173.479C608.55 173.479 607.438 173.747 606.242 174.284V165.958H613.786V167.545H608.036V172.053C608.726 171.9 609.324 171.823 609.83 171.823Z" fill="black"/>
<path d="M710.96 174.629C711.021 176.254 711.374 177.489 712.018 178.332C712.662 179.16 713.451 179.574 714.387 179.574C715.322 179.574 716.043 179.252 716.549 178.608C717.07 177.964 717.331 177.144 717.331 176.147C717.331 175.15 717.07 174.368 716.549 173.801C716.043 173.234 715.376 172.95 714.548 172.95C713.168 172.95 711.972 173.51 710.96 174.629ZM714.686 171.317C716.127 171.317 717.239 171.754 718.021 172.628C718.818 173.502 719.217 174.683 719.217 176.17C719.217 177.657 718.78 178.876 717.906 179.827C717.047 180.778 715.905 181.253 714.479 181.253C712.761 181.253 711.443 180.601 710.523 179.298C709.603 177.995 709.143 176.293 709.143 174.192C709.143 171.693 709.756 169.623 710.983 167.982C712.209 166.341 713.896 165.521 716.043 165.521C716.733 165.521 717.438 165.636 718.159 165.866V167.637C717.499 167.346 716.802 167.2 716.066 167.2C714.624 167.2 713.474 167.744 712.616 168.833C711.757 169.906 711.228 171.263 711.029 172.904C712.041 171.846 713.26 171.317 714.686 171.317Z" fill="black"/>
</g>
<defs>
<clipPath id="clip0_53_38">
<rect width="800" height="245" fill="white"/>
</clipPath>
</defs>
</svg>
